<mxfile host="app.diagrams.net" modified="2023-06-21T11:10:52.534Z" agent="Mozilla/5.0 (Macintosh; Intel Mac OS X 10_15_7) AppleWebKit/537.36 (KHTML, like Gecko) Chrome/114.0.0.0 Safari/537.36" version="21.3.8" etag="HUjnC7Ig1m9Ni2Jf-w4r" type="github">
  <diagram name="Page-1" id="G89Yh_980wy-171W_0i4">
    <mxGraphModel>
      <root>
        <mxCell id="0" />
        <mxCell id="1" parent="0" />
      </root>
    </mxGraphModel>
  </diagram>
</mxfile>
